<svg width="1366" height="512" xmlns="http://www.w3.org/2000/svg">

 <g>
  <title>background</title>
  <rect fill="none" id="canvas_background" height="514" width="1368" y="-1" x="-1"/>
 </g>
 <g>
  <title>Layer 1</title>
  <path id="svg_1" fill="none" d="m117.823997,184.162003l122.297005,-122.299004c42.540985,-42.540998 111.514008,-42.540998 154.053986,0c42.541016,42.541 42.541016,111.515007 0,154.057014l-122.294983,122.298981c-42.541,42.540985 -111.514008,42.540985 -154.054008,0c-42.542999,-42.541992 -42.542999,-111.515991 -0.001999,-154.056992z"/>
  <path id="svg_2" fill="none" d="m371.067993,84.971001c-29.730011,-29.732002 -78.106995,-29.732002 -107.838989,0l-23.108002,23.108002l-99.188019,99.189003c-29.731995,29.731995 -29.729996,78.108002 0,107.839996s78.10701,29.731995 107.839005,0l122.296005,-122.298004c29.731995,-29.729996 29.731018,-78.106995 0,-107.838997z"/>
  <g id="svg_3">
   <path id="svg_4" fill="#ffffff" d="m447.868011,130.722l-13.957001,0c-1.709015,-24.663002 -11.174988,-48.879997 -28.385986,-68.653l9.833984,-9.832001c3.19101,-3.190998 3.19101,-8.363998 0,-11.554001c-3.190002,-3.190998 -8.363007,-3.191998 -11.553986,-0.000999l-9.830017,9.829002c-19.263,-16.794003 -43.160004,-26.694002 -68.656006,-28.440002l0,-13.900999c0,-4.513 -3.65799,-8.17 -8.169983,-8.17c-4.511993,0 -8.170013,3.657 -8.170013,8.17l0,13.9c-25.496002,1.746 -49.393005,11.645 -68.655991,28.439999l-9.82901,-9.828999c-3.190994,-3.189999 -8.363998,-3.190998 -11.554001,0.000999c-3.190994,3.191002 -3.190994,8.364002 0,11.554001l9.628021,9.627998l-49.594009,49.595001l-9.628006,-9.627998c-3.190994,-3.190002 -8.363998,-3.190002 -11.554001,0c-3.190994,3.192001 -3.190994,8.363998 0,11.555l9.628006,9.627998l-49.596001,49.594994l-9.629005,-9.627991c-3.190994,-3.190002 -8.363998,-3.19101 -11.554001,0.000992c-3.190994,3.19101 -3.190994,8.363998 0,11.554001l9.832001,9.832001c-17.211998,19.774002 -26.675995,43.990997 -28.384995,68.654007l-13.955009,0c-4.512005,0 -8.170002,3.656982 -8.170002,8.169983s3.657997,8.170013 8.170002,8.170013l13.956993,0c1.709007,24.662994 11.175003,48.880005 28.385002,68.653992l-29.089996,29.089996c-10.802002,10.802002 -16.751003,25.164001 -16.751003,40.44101c0,15.274994 5.949001,29.638 16.751003,40.440002c10.801994,10.800995 25.164001,16.75 40.439995,16.75s29.638,-5.949005 40.440002,-16.751007l7.701996,-7.701996c15.927002,-15.928009 41.844009,-15.927002 57.771011,-0.001007c15.926987,15.928009 15.926987,41.845001 0,57.770996c-3.19101,3.192017 -3.19101,8.364014 0,11.555023c1.594986,1.595001 3.685989,2.391968 5.776993,2.391968s4.182007,-0.796967 5.777008,-2.391968c22.297989,-22.299011 22.297989,-58.580994 0,-80.881012c-22.299011,-22.297974 -58.580002,-22.297974 -80.880005,0.001007l-7.701996,7.701996c-7.716003,7.716003 -17.974014,11.96402 -28.88501,11.96402s-21.169998,-4.248016 -28.884995,-11.96402c-7.716003,-7.714996 -11.964005,-17.972992 -11.964005,-28.884979c0,-10.913025 4.25,-21.171021 11.964005,-28.886017l29.086998,-29.087006c19.262993,16.794006 43.159996,26.692017 68.655998,28.438019l0,13.901001c0,4.513 3.658005,8.169983 8.169998,8.169983c4.512009,0 8.169998,-3.656982 8.169998,-8.169983l0,-13.902008c25.496002,-1.744995 49.393005,-11.644012 68.655991,-28.437988l9.82901,9.828979c1.595001,1.595001 3.686005,2.391998 5.777008,2.391998c2.089996,0 4.182007,-0.796997 5.777008,-2.392975c3.190979,-3.19101 3.190979,-8.364014 0,-11.554016l-9.628021,-9.627991l49.594025,-49.595001l9.628998,9.627991c1.595001,1.595001 3.685974,2.391998 5.776978,2.391998c2.089996,0 4.182007,-0.796997 5.777008,-2.393005c3.19101,-3.190979 3.19101,-8.362976 0,-11.553986l-9.627991,-9.627991l49.593994,-49.595016l9.628998,9.628006c1.595001,1.595001 3.686005,2.391998 5.777008,2.391998c2.089996,0 4.182007,-0.796997 5.776978,-2.393005c3.19101,-3.190994 3.19101,-8.363998 0,-11.554001l-9.83197,-9.832001c17.211975,-19.774002 26.675995,-43.990997 28.384979,-68.653992l13.957001,0c4.511993,0 8.170013,-3.656998 8.170013,-8.169998c-0.003021,-4.512009 -3.660004,-8.168015 -8.171997,-8.168015zm-59.469025,79.421005l-122.296997,122.298981c-19.031998,19.032013 -44.335007,29.514008 -71.251007,29.514008c-26.914993,0 -52.218994,-10.481995 -71.249992,-29.514008c-39.287003,-39.286987 -39.287003,-103.214996 0,-142.501999l122.297005,-122.298988c19.028,-19.028999 44.32399,-29.508999 71.233994,-29.514999c26.943024,0.004002 52.240021,10.485001 71.266998,29.514999c39.287018,39.287003 39.287018,103.213997 0,142.502007z"/>
   <circle stroke-width="0" stroke="#003366" id="svg_5" fill="#ffffff" r="5" cy="162.77" cx="332.557"/>
   <circle id="svg_6" fill="#ffffff" r="8.169994" cy="127.549" cx="292.557"/>
   <path id="svg_7" fill="#ffffff" d="m257.453003,79.193001c-3.19101,3.192001 -3.19101,8.363998 0,11.555c3.19101,3.190002 8.363983,3.190002 11.553986,0c26.545013,-26.544998 69.738007,-26.545998 96.283997,-0.000999c26.545013,26.545998 26.545013,69.741005 0,96.286003l-122.29599,122.298996c-12.83699,12.837006 -29.93399,19.906006 -48.143005,19.906006s-35.306,-7.069 -48.141983,-19.906006c-12.836014,-12.834991 -19.905014,-29.933014 -19.905014,-48.141998s7.069,-35.307007 19.905014,-48.143005l99.187988,-99.188995c3.19101,-3.192001 3.19101,-8.363998 0,-11.555c-3.190994,-3.190002 -8.363998,-3.190002 -11.554001,0l-99.187988,99.189003c-15.923004,15.922989 -24.69101,37.123993 -24.69101,59.697998c0,22.575012 8.768005,43.774994 24.69101,59.695984c15.921997,15.923004 37.123001,24.692017 59.695984,24.692017s43.774002,-8.769012 59.695999,-24.69101l122.298019,-122.296997c32.916992,-32.917999 32.916992,-86.477997 0,-119.396004c-32.917999,-32.916992 -86.477997,-32.916992 -119.393005,-0.000992z"/>
   <circle stroke-width="0" stroke="#003366" id="svg_8" fill="#ffffff" r="8.17" cy="237.314" cx="179.449"/>
   <path id="svg_9" fill="#ffffff" d="m237.735001,214.453995c-1.714996,1.714996 -2.841995,1.821991 -6.486008,1.929001c-4.450989,0.130997 -11.178986,0.328995 -17.557999,6.707001c-3.190994,3.190994 -3.190994,8.363998 0,11.554001c1.596008,1.595993 3.686005,2.39299 5.778,2.39299c2.090012,0 4.182007,-0.796997 5.777008,-2.391998c1.714996,-1.714996 2.841003,-1.822006 6.485001,-1.929001c4.451996,-0.130997 11.179993,-0.328995 17.559998,-6.709c6.378006,-6.378006 6.576996,-13.106003 6.707993,-17.557999c0.108002,-3.643997 0.214996,-4.770004 1.929993,-6.485992c1.715027,-1.714005 2.841003,-1.821014 6.484009,-1.929001c4.451019,-0.131012 11.179016,-0.32901 17.558014,-6.707001c6.377991,-6.378006 6.575989,-13.106003 6.707001,-17.557007c0.106995,-3.643997 0.214996,-4.770004 1.928986,-6.485001c3.19101,-3.190994 3.190002,-8.363998 -0.001007,-11.554001c-3.190979,-3.190002 -8.363983,-3.190994 -11.553986,0.001007c-6.377991,6.377991 -6.575989,13.106003 -6.707001,17.556992c-0.106995,3.643997 -0.214996,4.770004 -1.928009,6.484009c-1.714996,1.714996 -2.841003,1.820999 -6.483978,1.929001c-4.452026,0.130997 -11.180008,0.328995 -17.559021,6.707993c-6.377991,6.378006 -6.576996,13.106003 -6.707993,17.557999c-0.106995,3.644012 -0.214996,4.771011 -1.931,6.486008z"/>
  </g>
  <g id="svg_10"/>
  <g id="svg_11"/>
  <g id="svg_12"/>
  <g id="svg_13"/>
  <g id="svg_14"/>
  <g id="svg_15"/>
  <g id="svg_16"/>
  <g id="svg_17"/>
  <g id="svg_18"/>
  <g id="svg_19"/>
  <g id="svg_20"/>
  <g id="svg_21"/>
  <g id="svg_22"/>
  <g id="svg_23"/>
  <g id="svg_24"/>
  <text font-weight="bold" transform="matrix(12.5884, 0, 0, 20.6913, -6536.72, -5492.66)" xml:space="preserve" text-anchor="start" font-family="'Courier New', Courier, monospace" font-size="24" id="svg_27" y="288.600688" x="552.622771" stroke-width="0" fill="#ffffff">AciDB</text>
 </g>
</svg>