<svg width="512" height="512" xmlns="http://www.w3.org/2000/svg">
 <g>
  <title>background</title>
  <rect x="-1" y="-1" width="514" height="514" id="canvas_background" fill="none"/>
 </g>

 <g>
  <title>Layer 1</title>
  <path d="m117.824,184.162l122.297,-122.299c42.54099,-42.541 111.51401,-42.541 154.05399,0c42.54101,42.541 42.54101,111.51501 0,154.05701l-122.29499,122.29898c-42.541,42.54099 -111.514,42.54099 -154.054,0c-42.543,-42.54199 -42.543,-111.51599 -0.002,-154.05699z" fill="#2f4970" id="svg_1"/>
  <path d="m371.06799,84.971c-29.73001,-29.732 -78.10699,-29.732 -107.83899,0l-23.108,23.108l-99.18802,99.18901c-29.73199,29.73199 -29.72999,78.108 0,107.83999s78.10701,29.732 107.83901,0l122.296,-122.298c29.732,-29.73 29.73102,-78.107 0,-107.839z" fill="#c2d0ea" id="svg_2"/>
  <g id="svg_3">
   <path d="m447.86801,130.722l-13.957,0c-1.70901,-24.663 -11.17499,-48.88 -28.38599,-68.653l9.83399,-9.832c3.19101,-3.191 3.19101,-8.364 0,-11.554c-3.19,-3.191 -8.36301,-3.192 -11.55399,-0.001l-9.83001,9.829c-19.263,-16.794 -43.16001,-26.694 -68.65601,-28.44l0,-13.901c0,-4.513 -3.65799,-8.17 -8.16998,-8.17c-4.512,0 -8.17002,3.657 -8.17002,8.17l0,13.9c-25.496,1.746 -49.393,11.645 -68.65599,28.44l-9.82901,-9.829c-3.19099,-3.19 -8.364,-3.191 -11.554,0.001c-3.19099,3.191 -3.19099,8.364 0,11.554l9.62802,9.628l-49.59401,49.595l-9.628,-9.628c-3.191,-3.19 -8.364,-3.19 -11.554,0c-3.191,3.192 -3.191,8.364 0,11.555l9.628,9.628l-49.596,49.59499l-9.629,-9.62799c-3.191,-3.19 -8.364,-3.19101 -11.554,0.00099c-3.191,3.19101 -3.191,8.364 0,11.554l9.832,9.83201c-17.212,19.774 -26.676,43.99099 -28.385,68.654l-13.95501,0c-4.512,0 -8.17,3.65699 -8.17,8.16999s3.658,8.17001 8.17,8.17001l13.957,0c1.709,24.66299 11.175,48.88 28.385,68.65399l-29.09,29.09c-10.802,10.802 -16.751,25.164 -16.751,40.44101c0,15.27499 5.949,29.638 16.751,40.44c10.80199,10.80099 25.164,16.75 40.44,16.75s29.638,-5.94901 40.44,-16.75101l7.70199,-7.70199c15.92701,-15.92801 41.84401,-15.92701 57.77101,-0.00101c15.92699,15.92801 15.92699,41.845 0,57.77099c-3.19101,3.19202 -3.19101,8.36402 0,11.55503c1.59499,1.595 3.68599,2.39197 5.777,2.39197s4.182,-0.79697 5.77701,-2.39197c22.29798,-22.29901 22.29798,-58.581 0,-80.88101c-22.29902,-22.29798 -58.58001,-22.29798 -80.88001,0.001l-7.702,7.702c-7.716,7.716 -17.97401,11.96402 -28.88501,11.96402s-21.16999,-4.24802 -28.88499,-11.96402c-7.716,-7.715 -11.96401,-17.97299 -11.96401,-28.88498c0,-10.91303 4.25,-21.17102 11.96401,-28.88602l29.087,-29.087c19.26299,16.794 43.15999,26.69201 68.656,28.43802l0,13.901c0,4.513 3.658,8.16998 8.16999,8.16998c4.51201,0 8.17,-3.65698 8.17,-8.16998l0,-13.90201c25.496,-1.745 49.39301,-11.64401 68.65599,-28.43799l9.82901,9.82898c1.595,1.595 3.68601,2.392 5.77701,2.392c2.09,0 4.18201,-0.797 5.77701,-2.39298c3.19098,-3.19101 3.19098,-8.36401 0,-11.55401l-9.62802,-9.62799l49.59402,-49.59501l9.629,9.628c1.595,1.595 3.68597,2.39199 5.77698,2.39199c2.08999,0 4.18201,-0.79699 5.77701,-2.393c3.19101,-3.19098 3.19101,-8.36298 0,-11.55399l-9.62799,-9.62799l49.59399,-49.59501l9.629,9.628c1.595,1.595 3.686,2.392 5.77701,2.392c2.08999,0 4.182,-0.797 5.77697,-2.39301c3.19101,-3.19099 3.19101,-8.36399 0,-11.554l-9.83197,-9.832c17.21198,-19.774 26.676,-43.99099 28.38498,-68.65399l13.957,0c4.512,0 8.17002,-3.657 8.17002,-8.17c-0.00302,-4.51201 -3.66001,-8.16801 -8.172,-8.16801zm-59.46902,79.42101l-122.297,122.29898c-19.032,19.03201 -44.33501,29.514 -71.25101,29.514c-26.91499,0 -52.21899,-10.48199 -71.24999,-29.514c-39.287,-39.28699 -39.287,-103.215 0,-142.502l122.297,-122.29899c19.02801,-19.029 44.32399,-29.509 71.234,-29.515c26.94302,0.004 52.24002,10.485 71.267,29.515c39.28701,39.287 39.28701,103.214 0,142.50201z" fill="#000000" id="svg_4"/>
   <circle cx="332.557" cy="162.77" r="5" fill="#000000" id="svg_5"/>
   <circle cx="292.557" cy="127.549" r="8.169994" fill="#000000" id="svg_6"/>
   <path d="m257.453,79.193c-3.19101,3.192 -3.19101,8.364 0,11.555c3.19101,3.19 8.36399,3.19 11.55399,0c26.54501,-26.545 69.73801,-26.546 96.284,-0.001c26.54501,26.546 26.54501,69.74101 0,96.28601l-122.29599,122.29899c-12.83699,12.83701 -29.93399,19.90601 -48.14301,19.90601s-35.306,-7.069 -48.14198,-19.90601c-12.83602,-12.83499 -19.90502,-29.93301 -19.90502,-48.142s7.069,-35.307 19.90502,-48.143l99.18799,-99.189c3.19101,-3.192 3.19101,-8.364 0,-11.555c-3.191,-3.19 -8.364,-3.19 -11.55401,0l-99.18798,99.18901c-15.92301,15.92298 -24.69101,37.12399 -24.69101,59.69799c0,22.57502 8.768,43.775 24.69101,59.69599c15.92199,15.923 37.123,24.69201 59.69598,24.69201s43.774,-8.76901 59.696,-24.69101l122.29802,-122.29699c32.91699,-32.918 32.91699,-86.478 0,-119.39601c-32.918,-32.91699 -86.478,-32.91699 -119.39301,-0.00099z" fill="#000000" id="svg_7"/>
   <circle cx="179.449" cy="237.314" r="8.17" fill="#000000" id="svg_8"/>
   <path d="m237.735,214.45399c-1.715,1.715 -2.84199,1.822 -6.48601,1.92901c-4.45099,0.13099 -11.17898,0.32899 -17.558,6.707c-3.19099,3.19099 -3.19099,8.36399 0,11.554c1.59601,1.59599 3.68601,2.39299 5.778,2.39299c2.09002,0 4.18201,-0.797 5.77701,-2.392c1.715,-1.715 2.84101,-1.82201 6.485,-1.929c4.452,-0.131 11.18,-0.329 17.56,-6.709c6.37801,-6.37801 6.577,-13.106 6.70799,-17.558c0.10801,-3.644 0.215,-4.77 1.93,-6.48599c1.71502,-1.71401 2.841,-1.82102 6.48401,-1.929c4.45101,-0.13102 11.17901,-0.32901 17.55801,-6.707c6.37799,-6.37801 6.57599,-13.10601 6.707,-17.55701c0.107,-3.644 0.215,-4.77001 1.92899,-6.485c3.19101,-3.191 3.19,-8.364 -0.00101,-11.554c-3.19098,-3.19001 -8.36398,-3.191 -11.55399,0.001c-6.37799,6.37799 -6.57598,13.10601 -6.707,17.557c-0.10699,3.64399 -0.21499,4.77 -1.92801,6.484c-1.71499,1.715 -2.841,1.821 -6.48397,1.92901c-4.45203,0.13099 -11.18001,0.32899 -17.55902,6.70799c-6.378,6.378 -6.577,13.106 -6.708,17.558c-0.10699,3.64401 -0.21499,4.77101 -1.931,6.48601l0,-0.00001z" fill="#000000" id="svg_9"/>
  </g>
  <g id="svg_10"/>
  <g id="svg_11"/>
  <g id="svg_12"/>
  <g id="svg_13"/>
  <g id="svg_14"/>
  <g id="svg_15"/>
  <g id="svg_16"/>
  <g id="svg_17"/>
  <g id="svg_18"/>
  <g id="svg_19"/>
  <g id="svg_20"/>
  <g id="svg_21"/>
  <g id="svg_22"/>
  <g id="svg_23"/>
  <g id="svg_24"/>
 </g>
</svg>